<svg xmlns="http://www.w3.org/2000/svg" width="57" height="58" viewBox="0 0 57 58"><defs><mask id="1d9ub" width="2" height="2" x="-1" y="-1"><path fill="#fff" d="M0 0h57v53H0z"/><path d="M10.026.4h36.985c5.523 0 10 4.478 10 10v32.021c0 5.523-4.477 10-10 10H10.026c-5.523 0-10-4.477-10-10v-32.02c0-5.523 4.477-10 10-10z"/></mask><filter id="1d9ua" width="77.3" height="78" x="-10" y="-10" filterUnits="userSpaceOnUse"><feOffset dx=".3" dy="5" in="SourceGraphic" result="FeOffset1057Out"/><feGaussianBlur in="FeOffset1057Out" result="FeGaussianBlur1058Out" stdDeviation="0 0"/></filter><linearGradient id="1d9uc" x1="49.01" x2="8.03" y1="52.42" y2=".4" gradientUnits="userSpaceOnUse"><stop offset="0" stop-color="#66c4dc"/><stop offset=".5" stop-color="#40b1ce"/><stop offset="1" stop-color="#0c98bb"/></linearGradient><filter id="1d9ud" width="200%" height="200%" x="-50%" y="-50%"><feGaussianBlur in="SourceGraphic" result="FeGaussianBlur1080Out" stdDeviation="0 0"/></filter><mask id="1d9ue"><path fill="#fff" d="M10.026.4h36.985c5.523 0 10 4.478 10 10v32.021c0 5.523-4.477 10-10 10H10.026c-5.523 0-10-4.477-10-10v-32.02c0-5.523 4.477-10 10-10z"/></mask></defs><g><g><g filter="url(#1d9ua)"><path fill="none" d="M10.026.4h36.985c5.523 0 10 4.478 10 10v32.021c0 5.523-4.477 10-10 10H10.026c-5.523 0-10-4.477-10-10v-32.02c0-5.523 4.477-10 10-10z" mask="url(&quot;#1d9ub&quot;)"/><path fill="#048b97" d="M10.026.4h36.985c5.523 0 10 4.478 10 10v32.021c0 5.523-4.477 10-10 10H10.026c-5.523 0-10-4.477-10-10v-32.02c0-5.523 4.477-10 10-10z"/></g><path fill="#ebeef3" d="M10.026.4h36.985c5.523 0 10 4.478 10 10v32.021c0 5.523-4.477 10-10 10H10.026c-5.523 0-10-4.477-10-10v-32.02c0-5.523 4.477-10 10-10z"/><path fill="url(#1d9uc)" d="M10.026.4h36.985c5.523 0 10 4.478 10 10v32.021c0 5.523-4.477 10-10 10H10.026c-5.523 0-10-4.477-10-10v-32.02c0-5.523 4.477-10 10-10z"/><path fill="#fff" fill-opacity=".58" d="M0 58V-5h57v19.932c-.245-5.305-4.623-9.531-9.99-9.531H10.027c-5.523 0-10 4.477-10 10v32.02c0 5.523 4.477 10 10 10h36.985c5.366 0 9.744-4.226 9.989-9.531V58zm57.01-10.579v-32.02c0-.157-.003-.314-.01-.469V47.89c.007-.156.01-.312.01-.469z" filter="url(#1d9ud)" mask="url(&quot;#1d9ue&quot;)"/></g></g></svg>