<svg xmlns="http://www.w3.org/2000/svg" width="63.999" height="63.999" viewBox="574 32 63.999 63.999"><path d="M605.996 32C588.352 32 574 46.352 574 63.996c0 17.645 14.352 32.003 31.996 32.003a32.041 32.041 0 0 0 32.003-32.003A32.036 32.036 0 0 0 605.996 32Zm13.716 46.857h-27.426a2.292 2.292 0 0 1-2.288-2.289 2.286 2.286 0 0 1 2.288-2.281h27.426a2.286 2.286 0 0 1 2.289 2.281 2.292 2.292 0 0 1-2.289 2.289Zm0-12.573h-27.426a2.292 2.292 0 0 1-2.288-2.288 2.286 2.286 0 0 1 2.288-2.281h27.426a2.286 2.286 0 0 1 2.289 2.28 2.292 2.292 0 0 1-2.289 2.29Zm0-12.572h-27.426a2.287 2.287 0 0 1-2.288-2.281 2.292 2.292 0 0 1 2.288-2.289h27.426a2.292 2.292 0 0 1 2.289 2.289 2.287 2.287 0 0 1-2.289 2.281Z" fill="rgba(254, 254, 254, 1)" fill-rule="evenodd" data-name="Forme 1"/></svg>