<svg xmlns="http://www.w3.org/2000/svg" width="58" height="58" viewBox="0 0 58 58"><defs><mask id="v0n7b" width="2" height="2" x="-1" y="-1"><path fill="#fff" d="M0 0h58v53H0z"/><path d="M10.128.4h36.984c5.523 0 10 4.478 10 10v32.021c0 5.523-4.477 10-10 10H10.128c-5.523 0-10-4.477-10-10v-32.02c0-5.523 4.477-10 10-10z"/></mask><filter id="v0n7a" width="78.3" height="78" x="-10" y="-10" filterUnits="userSpaceOnUse"><feOffset dx=".3" dy="5" in="SourceGraphic" result="FeOffset1139Out"/><feGaussianBlur in="FeOffset1139Out" result="FeGaussianBlur1140Out" stdDeviation="0 0"/></filter><linearGradient id="v0n7c" x1="49.11" x2="8.13" y1="52.42" y2=".4" gradientUnits="userSpaceOnUse"><stop offset="0" stop-color="#42eb5c"/><stop offset="1" stop-color="#37b34a"/></linearGradient><filter id="v0n7d" width="200%" height="200%" x="-50%" y="-50%"><feGaussianBlur in="SourceGraphic" result="FeGaussianBlur1161Out" stdDeviation="0 0"/></filter><mask id="v0n7e"><path fill="#fff" d="M10.128.4h36.984c5.523 0 10 4.478 10 10v32.021c0 5.523-4.477 10-10 10H10.128c-5.523 0-10-4.477-10-10v-32.02c0-5.523 4.477-10 10-10z"/></mask></defs><g><g><g filter="url(#v0n7a)"><path fill="none" d="M10.128.4h36.984c5.523 0 10 4.478 10 10v32.021c0 5.523-4.477 10-10 10H10.128c-5.523 0-10-4.477-10-10v-32.02c0-5.523 4.477-10 10-10z" mask="url(&quot;#v0n7b&quot;)"/><path fill="#015d33" d="M10.128.4h36.984c5.523 0 10 4.478 10 10v32.021c0 5.523-4.477 10-10 10H10.128c-5.523 0-10-4.477-10-10v-32.02c0-5.523 4.477-10 10-10z"/></g><path fill="#ebeef3" d="M10.128.4h36.984c5.523 0 10 4.478 10 10v32.021c0 5.523-4.477 10-10 10H10.128c-5.523 0-10-4.477-10-10v-32.02c0-5.523 4.477-10 10-10z"/><path fill="url(#v0n7c)" d="M10.128.4h36.984c5.523 0 10 4.478 10 10v32.021c0 5.523-4.477 10-10 10H10.128c-5.523 0-10-4.477-10-10v-32.02c0-5.523 4.477-10 10-10z"/><path fill="#fff" fill-opacity=".58" d="M0 58V-5h58v63zm.128-42.6v32.021c0 5.523 4.477 10 10 10h36.984c5.523 0 10-4.477 10-10v-32.02c0-5.523-4.477-10-10-10H10.128c-5.523 0-10 4.477-10 10z" filter="url(#v0n7d)" mask="url(&quot;#v0n7e&quot;)"/></g></g></svg>