<svg xmlns="http://www.w3.org/2000/svg" width="58" height="58" viewBox="0 0 58 58"><defs><mask id="fv5tb" width="2" height="2" x="-1" y="-1"><path fill="#fff" d="M0 0h58v53H0z"/><path d="M10.117.4h36.955c5.523 0 10 4.478 10 10v32.021c0 5.523-4.477 10-10 10H10.117c-5.523 0-10-4.477-10-10v-32.02c0-5.523 4.477-10 10-10z"/></mask><filter id="fv5ta" width="78.3" height="78" x="-10" y="-10" filterUnits="userSpaceOnUse"><feOffset dx=".3" dy="5" in="SourceGraphic" result="FeOffset1180Out"/><feGaussianBlur in="FeOffset1180Out" result="FeGaussianBlur1181Out" stdDeviation="0 0"/></filter><linearGradient id="fv5tc" x1="49.07" x2="8.12" y1="52.42" y2=".4" gradientUnits="userSpaceOnUse"><stop offset="0" stop-color="#cf1d37"/><stop offset=".01" stop-color="#cf1d37"/><stop offset="1" stop-color="#f05036"/></linearGradient><filter id="fv5td" width="200%" height="200%" x="-50%" y="-50%"><feGaussianBlur in="SourceGraphic" result="FeGaussianBlur1203Out" stdDeviation="0 0"/></filter><mask id="fv5te"><path fill="#fff" d="M10.117.4h36.955c5.523 0 10 4.478 10 10v32.021c0 5.523-4.477 10-10 10H10.117c-5.523 0-10-4.477-10-10v-32.02c0-5.523 4.477-10 10-10z"/></mask></defs><g><g><g filter="url(#fv5ta)"><path fill="none" d="M10.117.4h36.955c5.523 0 10 4.478 10 10v32.021c0 5.523-4.477 10-10 10H10.117c-5.523 0-10-4.477-10-10v-32.02c0-5.523 4.477-10 10-10z" mask="url(&quot;#fv5tb&quot;)"/><path fill="#8c0606" d="M10.117.4h36.955c5.523 0 10 4.478 10 10v32.021c0 5.523-4.477 10-10 10H10.117c-5.523 0-10-4.477-10-10v-32.02c0-5.523 4.477-10 10-10z"/></g><path fill="#ebeef3" d="M10.117.4h36.955c5.523 0 10 4.478 10 10v32.021c0 5.523-4.477 10-10 10H10.117c-5.523 0-10-4.477-10-10v-32.02c0-5.523 4.477-10 10-10z"/><path fill="url(#fv5tc)" d="M10.117.4h36.955c5.523 0 10 4.478 10 10v32.021c0 5.523-4.477 10-10 10H10.117c-5.523 0-10-4.477-10-10v-32.02c0-5.523 4.477-10 10-10z"/><path fill="#fff" fill-opacity=".58" d="M0 58V-5h58v63zm.117-42.6v32.021c0 5.523 4.477 10 10 10h36.955c5.523 0 10-4.477 10-10v-32.02c0-5.523-4.477-10-10-10H10.117c-5.523 0-10 4.477-10 10z" filter="url(#fv5td)" mask="url(&quot;#fv5te&quot;)"/></g></g></svg>